<svg width="20" height="20" viewBox="0 0 20 20" fill="none" xmlns="http://www.w3.org/2000/svg">
<path d="M6.29305 8.41391H7.5C8.05228 8.41391 8.5 8.86162 8.5 9.41391V19C8.5 19.5523 8.94772 20 9.5 20H16.5C17.0523 20 17.5 19.5523 17.5 19V7.45531C17.5 6.90303 17.0523 6.45531 16.5 6.45531C15.9477 6.45531 15.5 6.0076 15.5 5.45531V3.5C15.5 2.94772 15.0523 2.5 14.5 2.5H10.75C10.6119 2.5 10.5 2.61193 10.5 2.75C10.5 2.88807 10.3881 3 10.25 3H9.25C8.83579 3 8.5 2.66421 8.5 2.25C8.5 1.83579 8.16421 1.5 7.75 1.5H6.25C5.83579 1.5 5.5 1.16421 5.5 0.75C5.5 0.335786 5.16421 0 4.75 0H2.5C1.94772 0 1.5 0.447715 1.5 1V9C1.5 9.55229 1.94772 10 2.5 10H4.70695C5.14494 10 5.5 9.64494 5.5 9.20695C5.5 8.76897 5.85506 8.41391 6.29305 8.41391Z" fill="white"/>
<path fill-rule="evenodd" clip-rule="evenodd" d="M4.5 1H2.5V3H4.5V1ZM14.5 3.5H11.5V6.5H14.5V3.5ZM16.5 7.46536H9.5V19H16.5V7.46536ZM2.5 4H4.5V6H2.5V4ZM2.5 7H4.5V9H2.5V7ZM7.5 5.5H5.5V7.5H7.5V5.5ZM5.5 2.5H7.5V4.5H5.5V2.5ZM10.5 4H8.5V6H10.5V4Z" fill="black"/>
</svg>
